<svg width="20" height="20" viewBox="0 0 20 20" fill="none" xmlns="http://www.w3.org/2000/svg">
<path d="M2.40625 4.5625C2.71875 4.84375 3.07812 4.98438 3.48438 4.98438C3.89062 4.98438 4.23438 4.84375 4.51562 4.5625C4.82812 4.25 4.98438 3.89063 4.98438 3.48438C4.98438 3.07812 4.82812 2.73438 4.51562 2.45312C4.23438 2.14062 3.89062 1.98438 3.48438 1.98438C3.07812 1.98438 2.71875 2.14062 2.40625 2.45312C2.125 2.73438 1.98438 3.07812 1.98438 3.48438C1.98438 3.89063 2.125 4.25 2.40625 4.5625ZM19.4219 9.57812C19.7969 9.95312 19.9844 10.4219 19.9844 10.9844C19.9844 11.5469 19.7969 12.0156 19.4219 12.3906L12.3906 19.4219C12.0156 19.7969 11.5469 19.9844 10.9844 19.9844C10.4219 19.9844 9.95312 19.7969 9.57812 19.4219L0.578125 10.4219C0.203125 10.0469 0.015625 9.57812 0.015625 9.01562V1.98438C0.015625 1.45313 0.203125 1 0.578125 0.625C0.984375 0.21875 1.45312 0.015625 1.98438 0.015625H9.01562C9.57812 0.015625 10.0469 0.203125 10.4219 0.578125L19.4219 9.57812Z" fill="#202020"/>
</svg>
