<svg width="18" height="20" viewBox="0 0 18 20" fill="none" xmlns="http://www.w3.org/2000/svg">
<path d="M15 4H12.9844C12.9844 3.25 12.7969 2.57813 12.4219 1.98438C12.0781 1.39062 11.6094 0.921875 11.0156 0.578125C10.4219 0.203125 9.75 0.015625 9 0.015625C8.25 0.015625 7.57812 0.203125 6.98438 0.578125C6.39062 0.921875 5.90625 1.39062 5.53125 1.98438C5.1875 2.57813 5.01562 3.25 5.01562 4H3C2.4375 4 1.95312 4.20312 1.54688 4.60938C1.17188 4.98438 0.984375 5.45312 0.984375 6.01562V18.0156C0.984375 18.5469 1.17188 19.0156 1.54688 19.4219C1.95312 19.7969 2.4375 19.9844 3 19.9844H15C15.5625 19.9844 16.0312 19.7969 16.4062 19.4219C16.8125 19.0156 17.0156 18.5469 17.0156 18.0156V6.01562C17.0156 5.45312 16.8125 4.98438 16.4062 4.60938C16.0312 4.20312 15.5625 4 15 4ZM6.98438 7.98438C6.98438 8.26562 6.89062 8.51562 6.70312 8.73438C6.51562 8.92188 6.28125 9.01562 6 9.01562C5.71875 9.01562 5.48438 8.92188 5.29688 8.73438C5.10938 8.51562 5.01562 8.26562 5.01562 7.98438V6.01562H6.98438V7.98438ZM9 1.98438C9.5625 1.98438 10.0312 2.1875 10.4062 2.59375C10.8125 2.96875 11.0156 3.4375 11.0156 4H6.98438C6.98438 3.4375 7.17188 2.96875 7.54688 2.59375C7.95312 2.1875 8.4375 1.98438 9 1.98438ZM12.9844 7.98438C12.9844 8.26562 12.8906 8.51562 12.7031 8.73438C12.5156 8.92188 12.2812 9.01562 12 9.01562C11.7188 9.01562 11.4844 8.92188 11.2969 8.73438C11.1094 8.51562 11.0156 8.26562 11.0156 7.98438V6.01562H12.9844V7.98438Z" fill="#202020"/>
</svg>
